<?xml version="1.0" encoding="UTF-8" standalone="no"?><!DOCTYPE svg PUBLIC "-//W3C//DTD SVG 1.1//EN" "http://www.w3.org/Graphics/SVG/1.1/DTD/svg11.dtd"><svg width="100%" height="100%" viewBox="0 0 686 686" version="1.1" xmlns="http://www.w3.org/2000/svg" xmlns:xlink="http://www.w3.org/1999/xlink" xml:space="preserve" style="fill-rule:evenodd;clip-rule:evenodd;stroke-linejoin:round;stroke-miterlimit:1.41421;"><g id="Layer1"><path d="M685.114,105.454c0,-58.202 -47.252,-105.454 -105.454,-105.454l-474.206,0c-58.202,0 -105.454,47.252 -105.454,105.454l0,474.206c0,58.202 47.252,105.454 105.454,105.454l474.206,0c58.202,0 105.454,-47.252 105.454,-105.454l0,-474.206Z" style="fill:#595959;"/><clipPath id="_clip1"><path d="M685.114,105.454c0,-58.202 -47.252,-105.454 -105.454,-105.454l-474.206,0c-58.202,0 -105.454,47.252 -105.454,105.454l0,474.206c0,58.202 47.252,105.454 105.454,105.454l474.206,0c58.202,0 105.454,-47.252 105.454,-105.454l0,-474.206Z"/></clipPath><g clip-path="url(#_clip1)"><path d="M600.654,454.164l0,228.576l-657.075,394.662c-46.955,0 -90.509,-11.823 -130.662,-35.469c-40.153,-23.208 -72.297,-55.064 -96.433,-95.569c-24.135,-40.285 -36.203,-83.636 -36.203,-130.052c0,-36.782 7.021,-70.937 21.064,-102.465c13.604,-31.528 424.057,-453.886 449.728,-477.751c25.452,-23.865 55.073,-42.146 88.863,-54.845c33.571,-12.699 70.103,-19.048 109.598,-19.048l250.462,0l0.658,226.606l-234.566,216.187l5.569,77.744l228.997,-228.576Z" style="fill:#bfbfbf;fill-rule:nonzero;"/><text x="46.742px" y="682.74px" style="font-family:'Braggadocio', fantasy;font-size:672.593px;">C</text></g></g></svg>